<svg width="160" height="160" viewBox="0 0 160 160" fill="none" xmlns="http://www.w3.org/2000/svg">
<rect width="160" height="160" fill="#F9FF00"/>
<path fill-rule="evenodd" clip-rule="evenodd" d="M144.82 32V77H16V32H144.82ZM102.355 38.4612H95.8V61.047C95.8 63.2198 96.085 64.9924 96.655 66.3647C97.225 67.737 98.023 68.7662 98.992 69.5095C99.961 70.2529 101.101 70.7675 102.298 70.9962C103.552 71.2249 104.806 71.3393 106.117 71.3393C107.428 71.3393 108.739 71.2249 109.993 70.939C111.19 70.6531 112.33 70.1385 113.299 69.338C114.268 68.5375 115.009 67.5083 115.579 66.136C116.092 64.9352 116.377 63.4485 116.434 61.6188V60.9898V38.4612H109.936V61.047C109.936 61.8475 109.879 62.5909 109.765 63.277C109.651 63.906 109.48 64.4778 109.195 65.0496C108.91 65.5642 108.511 65.9644 108.055 66.2503C107.599 66.5362 106.915 66.7078 106.174 66.7078C105.433 66.7078 104.806 66.5362 104.293 66.2503C103.78 65.9644 103.381 65.5642 103.096 65.0496C102.811 64.4778 102.583 63.906 102.526 63.277C102.469 62.7052 102.412 62.1906 102.355 61.6188V61.047V38.4612ZM82.462 37.8323C80.011 37.8323 78.073 38.2325 76.648 39.0902C75.223 39.9479 74.083 41.0915 73.342 42.5781C72.601 44.0648 72.088 45.8374 71.86 47.8958C71.632 50.1258 71.518 52.413 71.518 54.7001C71.518 57.1588 71.632 59.446 71.86 61.5044C72.088 63.5629 72.601 65.3355 73.342 66.8221C74.083 68.2516 75.223 69.4524 76.648 70.2529C78.073 71.0534 80.068 71.4536 82.462 71.4536C84.913 71.4536 86.851 71.0534 88.276 70.2529C89.701 69.5095 90.841 68.3088 91.582 66.8221C92.38 65.3355 92.836 63.5629 93.064 61.5044C93.292 59.446 93.406 57.1588 93.406 54.7001C93.406 52.2414 93.292 50.0114 93.064 47.8958C92.836 45.8374 92.323 44.0648 91.582 42.5781C90.841 41.0915 89.701 39.8907 88.276 39.0902C86.851 38.2897 84.913 37.8323 82.462 37.8323ZM138.892 38.4612H118.258V43.8361H125.326V70.8818H131.824V43.8361H138.892V38.4612ZM59.719 38.4612H48.775V70.8818H59.776C61.657 70.8818 63.253 70.6531 64.564 70.0813C65.875 69.5667 66.901 68.8806 67.699 68.0229C68.497 67.1652 69.067 66.136 69.409 64.9924C69.751 63.7916 69.922 62.5909 69.922 61.3329C69.922 59.1601 69.409 57.3875 68.326 56.1296C67.357 54.9288 66.046 54.1855 64.45 53.8996L64.051 53.8424V53.7281C65.704 53.2706 66.901 52.413 67.699 51.155C68.497 49.8971 68.896 48.4104 68.896 46.6379C68.896 45.094 68.668 43.7789 68.212 42.7497C67.756 41.6633 67.129 40.8628 66.331 40.2338C65.476 39.5476 64.45 39.0902 63.424 38.8615C62.17 38.6328 60.916 38.4612 59.719 38.4612ZM37.945 38.4612H29.908L21.358 70.8818H28.141L29.623 64.0203H38.23L39.712 70.8818H46.495L37.945 38.4612ZM82.462 42.6925C83.431 42.6925 84.229 42.9212 84.799 43.3787C85.369 43.8361 85.825 44.5222 86.167 45.4943C86.509 46.4663 86.68 47.7243 86.794 49.2109C86.908 50.6976 86.965 52.5845 86.965 54.7573C86.965 56.9301 86.908 58.817 86.794 60.3037C86.68 61.8475 86.452 63.0483 86.167 64.0203C85.825 64.9924 85.369 65.6785 84.799 66.136C84.229 66.5934 83.431 66.8221 82.462 66.8221C81.493 66.8221 80.695 66.5934 80.125 66.136C79.555 65.6785 79.099 64.9924 78.757 64.0203C78.415 63.0483 78.244 61.8475 78.13 60.3037C78.016 58.474 77.959 56.587 77.959 54.7573C77.959 52.5845 78.016 50.7548 78.13 49.2109C78.244 47.7243 78.472 46.4663 78.757 45.4943C79.099 44.5222 79.498 43.8361 80.125 43.3787C80.695 42.864 81.493 42.6925 82.462 42.6925ZM58.123 56.3583C58.864 56.3583 59.491 56.4155 60.118 56.587C60.745 56.7586 61.258 56.9873 61.657 57.3876C62.056 57.7878 62.455 58.2452 62.683 58.8742C62.968 59.5032 63.082 60.3037 63.082 61.2186C63.082 63.1055 62.626 64.3634 61.657 65.1067C60.802 65.7357 59.662 66.0788 58.294 66.136H57.838H55.33V56.3583H58.123ZM34.012 44.122L37.09 58.7027H30.763L33.898 44.122H34.012ZM57.667 43.3215C59.32 43.3215 60.46 43.6645 61.258 44.2935C61.999 44.9225 62.398 46.0089 62.398 47.5527C62.398 49.0966 61.999 50.183 61.144 50.8691C60.403 51.4409 59.206 51.784 57.61 51.8412H57.154H55.33V43.3215H57.667Z" fill="black"/>
<path fill-rule="evenodd" clip-rule="evenodd" d="M111.703 128V83H16V128H111.703ZM53.962 88.8323C51.511 88.8323 49.63 89.2325 48.148 90.0902C46.723 90.8907 45.583 92.0915 44.842 93.5781C44.101 95.0648 43.588 96.8374 43.36 98.8958C43.132 101.126 43.018 103.413 43.018 105.7C43.018 108.159 43.132 110.446 43.36 112.504C43.588 114.563 44.101 116.335 44.842 117.822C45.583 119.252 46.723 120.452 48.148 121.253C49.573 122.053 51.511 122.454 53.962 122.454C56.413 122.454 58.294 122.053 59.776 121.253C61.201 120.51 62.341 119.309 63.082 117.822C63.823 116.335 64.336 114.563 64.564 112.504C64.792 110.446 64.906 108.159 64.906 105.7C64.906 103.413 64.792 101.183 64.564 98.8958C64.336 96.8374 63.823 95.0648 63.082 93.5781C62.341 92.1487 61.201 90.8907 59.776 90.0902C58.294 89.2897 56.356 88.8323 53.962 88.8323ZM56.299 94.3787C55.672 93.9212 54.931 93.6925 53.962 93.6925C52.993 93.6925 52.195 93.864 51.625 94.3787C50.998 94.8361 50.599 95.5222 50.257 96.4943C49.972 97.4663 49.744 98.7243 49.63 100.211C49.516 101.755 49.459 103.584 49.459 105.757C49.459 107.93 49.516 109.76 49.63 111.304C49.744 112.848 49.915 114.048 50.257 115.02C50.599 115.992 51.055 116.679 51.625 117.136C52.252 117.593 52.993 117.822 53.962 117.822C54.931 117.822 55.729 117.593 56.299 117.136C56.926 116.679 57.325 115.992 57.667 115.02C57.952 114.048 58.18 112.848 58.294 111.304C58.408 109.817 58.465 107.93 58.465 105.757C58.465 103.584 58.408 101.698 58.294 100.211C58.18 98.7243 58.009 97.4663 57.667 96.4943C57.325 95.5222 56.869 94.8361 56.299 94.3787ZM20.389 89.4612H27.685L31.903 101.983H31.96L36.463 89.4612H43.474L35.152 109.131V121.882H28.711V109.131L20.389 89.4612ZM73.627 89.4612H67.186V112.047C67.186 114.22 67.471 115.992 68.041 117.365C68.611 118.737 69.352 119.766 70.321 120.51C71.29 121.253 72.43 121.767 73.57 121.996C74.824 122.225 76.078 122.339 77.389 122.339C78.7 122.339 79.954 122.225 81.208 121.939C82.405 121.653 83.545 121.139 84.457 120.338C85.426 119.537 86.167 118.508 86.737 117.136C87.25 115.935 87.535 114.449 87.592 112.619V111.99V89.4612H81.151V112.047C81.151 112.848 81.094 113.591 80.98 114.277C80.923 114.906 80.695 115.478 80.41 116.05C80.125 116.564 79.726 116.964 79.27 117.25C78.814 117.536 78.187 117.708 77.389 117.708C76.648 117.708 76.021 117.536 75.508 117.25C74.995 116.964 74.596 116.564 74.368 116.05C74.083 115.478 73.855 114.906 73.798 114.277C73.7695 113.991 73.741 113.719 73.7125 113.448C73.684 113.176 73.6555 112.905 73.627 112.619V112.047V89.4612ZM91.753 95.9225C91.753 91.8056 95.059 88.4892 99.106 88.4892C103.21 88.4892 106.516 91.8628 106.459 95.9225C106.459 100.039 103.153 103.356 99.106 103.356C95.059 103.356 91.753 100.039 91.753 95.9225ZM99.106 90.7764C99.961 90.7764 100.816 91.0051 101.557 91.4053L101.842 91.5769L99.562 93.864L101.158 95.4651L103.438 93.1779C103.951 93.9784 104.236 94.9504 104.236 95.9225C104.236 98.7814 101.956 101.126 99.106 101.126C96.256 101.126 93.976 98.7814 93.976 95.9225C93.976 93.1207 96.313 90.7764 99.106 90.7764Z" fill="black"/>
</svg>
