<svg width="160" height="160" viewBox="0 0 160 160" fill="none" xmlns="http://www.w3.org/2000/svg">
<rect width="160" height="160" fill="#FF385C"/>
<g clip-path="url(#clip0_4_443)">
<path d="M120.406 111.458C119.696 116.759 116.152 121.347 111.19 123.385C108.759 124.403 106.126 124.71 103.493 124.403C100.962 124.098 98.4295 123.282 95.7971 121.755C92.1509 119.714 88.5048 116.556 84.2517 111.867C90.9359 103.611 94.9857 96.0677 96.5053 89.3422C97.2145 86.1815 97.3156 83.3274 97.0121 80.6769C96.6075 78.1293 95.6959 75.7842 94.2775 73.7457C91.1382 69.1596 85.8724 66.5091 79.9985 66.5091C74.1246 66.5091 68.8587 69.2614 65.7195 73.7457C64.3011 75.7842 63.3905 78.1293 62.9849 80.6769C62.5802 83.3274 62.6813 86.2834 63.4917 89.3422C65.0103 96.0677 69.1622 103.713 75.7453 111.968C71.5933 116.658 67.846 119.817 64.1999 121.856C61.5675 123.385 59.0352 124.201 56.5039 124.505C53.7693 124.812 51.1359 124.403 48.807 123.487C43.8446 121.448 40.3007 116.86 39.5915 111.56C39.288 109.013 39.4903 106.465 40.503 103.611C40.8065 102.591 41.3134 101.573 41.8192 100.349C42.5284 98.7192 43.3388 96.9851 44.1481 95.2521L44.2503 95.0494C51.2371 79.8613 58.7317 64.3687 66.5298 49.2844L66.8333 48.6715C67.6437 47.1441 68.4531 45.5139 69.2644 43.9845C70.0738 42.3533 70.9853 40.8239 72.0992 39.4981C74.2258 37.0513 77.0616 35.7265 80.2008 35.7265C83.3401 35.7265 86.1759 37.0513 88.3025 39.4981C89.4163 40.8239 90.3279 42.3533 91.1382 43.9845C91.9486 45.5139 92.758 47.1441 93.5683 48.6715L93.8728 49.2844C101.569 64.4705 109.063 79.9631 116.051 95.1513V95.2521C116.862 96.8833 117.57 98.7192 118.38 100.349C118.887 101.573 119.393 102.591 119.696 103.611C120.507 106.26 120.81 108.81 120.406 111.458ZM79.9985 106.668C74.5303 99.7374 70.9853 93.2135 69.7703 87.7109C69.2644 85.3659 69.1622 83.3274 69.4668 81.4925C69.6691 79.8613 70.2771 78.4337 71.0865 77.2098C73.0107 74.4605 76.2512 72.7244 79.9985 72.7244C83.7458 72.7244 87.0874 74.3567 88.9105 77.2098C89.7198 78.4337 90.3279 79.8613 90.5302 81.4925C90.8337 83.3274 90.7326 85.4677 90.2267 87.7109C89.0117 93.1127 85.4667 99.6356 79.9985 106.668ZM125.671 101.368C125.166 100.145 124.659 98.82 124.153 97.6989C123.342 95.865 122.532 94.131 121.823 92.4997L121.722 92.3989C114.735 77.109 107.24 61.6164 99.341 46.3295L99.0375 45.7165C98.2272 44.1871 97.4168 42.5559 96.6075 40.9257C95.5937 39.0898 94.581 37.1551 92.9613 35.3192C89.7199 31.2422 85.062 29 80.0997 29C75.0361 29 70.4795 31.2422 67.1368 35.1166C65.6183 36.9505 64.5044 38.8872 63.4917 40.723C62.6813 42.3533 61.871 43.9845 61.0606 45.5139L60.7571 46.1238C52.96 61.4127 45.3642 76.9064 38.3764 92.1953L38.2753 92.3989C37.5661 94.0291 36.7557 95.7612 35.9453 97.5971C35.4395 98.7192 34.9326 99.9421 34.4268 101.267C33.1096 105.037 32.7049 108.605 33.2107 112.274C34.3256 119.919 39.3891 126.341 46.3769 129.194C49.0093 130.316 51.7439 130.825 54.5797 130.825C55.3901 130.825 56.4028 130.724 57.2131 130.621C60.5548 130.212 63.9976 129.093 67.3392 127.156C71.4922 124.812 75.4418 121.448 79.8973 116.556C84.3528 121.448 88.4036 124.812 92.4545 127.156C95.7971 129.093 99.2399 130.212 102.582 130.621C103.392 130.724 104.405 130.825 105.215 130.825C108.051 130.825 110.885 130.316 113.418 129.194C120.507 126.341 125.469 119.817 126.583 112.274C127.393 108.706 126.988 105.14 125.671 101.368Z" fill="white"/>
</g>
<defs>
<clipPath id="clip0_4_443">
<rect width="94" height="102" fill="white" transform="translate(33 29)"/>
</clipPath>
</defs>
</svg>
