<svg width="160" height="160" viewBox="0 0 160 160" fill="none" xmlns="http://www.w3.org/2000/svg">
<rect width="160" height="160" fill="#FF5900"/>
<path d="M20.742 66.9638C20.1983 67.3942 20.0838 68.1113 20.3986 69.1155C20.6848 70.0049 21.3573 71.1092 22.4161 72.4289C26.6799 77.7076 31.7595 82.0967 37.6546 85.5968C43.5497 89.0968 49.8599 91.6786 56.5849 93.3424C63.3384 95.0351 70.235 95.8813 77.2747 95.8813C86.2892 95.8813 94.8743 94.5618 103.03 91.9223C111.186 89.3117 117.997 85.6396 123.463 80.9062C125.38 79.2137 126.339 77.8654 126.339 76.8612C126.339 76.4882 126.181 76.1153 125.867 75.7423C125.437 75.3122 124.922 75.1687 124.321 75.3122C123.72 75.4554 122.876 75.814 121.789 76.3879C116.552 79.142 110.17 81.3366 102.644 82.9718C95.1463 84.6357 87.3194 85.4676 79.1636 85.4676C69.0619 85.4676 59.3034 84.0907 49.8884 81.3366C40.4734 78.5824 32.1315 74.2794 24.8628 68.427C23.8041 67.5951 22.9454 67.0641 22.2873 66.8347C21.6577 66.6052 21.1426 66.6483 20.742 66.9638Z" fill="#FEFEFF"/>
<path d="M116.121 69.1179C115.52 69.6918 115.362 70.2942 115.649 70.9255C115.849 71.3845 116.235 71.6425 116.808 71.7C117.38 71.786 118.195 71.7286 119.254 71.5279C120.971 71.155 122.76 70.8966 124.62 70.7532C126.48 70.6386 128.097 70.6672 129.471 70.8392C130.844 71.0401 131.703 71.3845 132.046 71.872C132.561 72.6468 132.375 74.2818 131.488 76.7778C130.63 79.2736 129.456 81.6976 127.968 84.0502C127.396 84.9967 127.052 85.7426 126.938 86.2879C126.824 86.8329 126.967 87.2919 127.367 87.6648C127.625 87.9229 127.911 88.0521 128.226 88.0521C129.056 88.0521 130.258 87.3205 131.832 85.8575C134.665 83.3903 136.653 80.4642 137.798 77.079C138.428 75.3289 138.814 73.493 138.957 71.5708C139.1 69.6489 138.886 68.2717 138.313 67.4398C137.769 66.6364 136.568 65.9766 134.707 65.4604C132.876 64.944 131.03 64.6857 129.17 64.6857C125.536 64.6857 122.087 65.5464 118.825 67.2677C117.623 67.9276 116.722 68.5443 116.121 69.1179Z" fill="#FEFEFF"/>
</svg>
