<svg width="160" height="160" viewBox="0 0 160 160" fill="none" xmlns="http://www.w3.org/2000/svg">
<rect width="160" height="160" fill="#0C2631"/>
<path fill-rule="evenodd" clip-rule="evenodd" d="M59.2478 94.7429C61.1187 94.7433 62.9128 95.4868 64.2355 96.8098C65.5583 98.1329 66.3014 99.9271 66.3014 101.798V123H91.048V76.5216C91.0484 75.5949 90.8662 74.6772 90.5118 73.821C90.1574 72.9648 89.6377 72.1868 88.9826 71.5314C88.3274 70.8761 87.5495 70.3563 86.6933 70.0017C85.8372 69.6472 84.9195 69.4648 83.9929 69.465H36.9999V94.7429H59.2478Z" fill="#F85A00"/>
<path fill-rule="evenodd" clip-rule="evenodd" d="M100.752 65.2571C98.8812 65.2567 97.0871 64.5132 95.7643 63.1902C94.4416 61.8671 93.6985 60.0729 93.6985 58.202V36.9999H68.9519V83.4784C68.9517 84.405 69.134 85.3226 69.4885 86.1787C69.843 87.0349 70.3626 87.8128 71.0177 88.4681C71.6729 89.1234 72.4507 89.6432 73.3068 89.9978C74.1628 90.3525 75.0804 90.535 76.007 90.535H123V65.2571H100.752Z" fill="white"/>
</svg>
