<svg width="160" height="160" viewBox="0 0 160 160" fill="none" xmlns="http://www.w3.org/2000/svg">
<rect width="160" height="160" fill="#003D9C"/>
<path d="M111 110C111 104.892 115.135 101 120 101C124.865 101 129 105.135 129 110C129 114.865 124.865 119 120 119C114.892 119 111 115.108 111 110Z" fill="white"/>
<path d="M76.972 105.216H64.3365V90.2712C64.3365 87.1376 65.5514 85.4503 68.2243 84.9682H76.7289C82.8037 84.9682 86.6916 88.8249 86.6916 95.092C86.9346 101.359 83.2898 105.216 76.972 105.216ZM64.3365 64.9617V61.105C64.3365 57.7305 65.7943 56.0432 68.9532 55.8021H75.2711C80.8598 55.8021 84.0187 59.1767 84.0187 64.4796C84.0187 68.5774 81.8317 73.6393 75.514 73.6393H64.0934L64.3365 64.9617ZM93.0093 79.9064L90.8224 78.7011L92.7664 77.0138C94.9533 75.0855 98.8412 70.5057 98.8412 63.0334C98.8412 51.2223 89.6074 43.75 75.514 43.75H59.4767H57.5328C53.402 43.991 50 47.3656 50 51.4634V117.75H57.5328H76C91.7944 117.75 102 109.314 102 96.0562C101.757 89.066 98.5981 82.7989 93.0093 79.9064Z" fill="white"/>
</svg>
