<svg width="160" height="160" viewBox="0 0 160 160" fill="none" xmlns="http://www.w3.org/2000/svg">
<rect width="160" height="160" fill="#181E2E"/>
<path d="M135 69.2083C135 72.6502 134.325 76.0581 133.013 79.2378C131.702 82.4175 129.779 85.3068 127.356 87.7404C124.932 90.1742 122.055 92.1045 118.889 93.4217C115.722 94.7387 112.329 95.4167 108.901 95.4167H100.292L91.093 117H73.2845L89.4984 78.9722H108.901C111.48 78.9722 113.953 77.9436 115.777 76.1125C117.6 74.2814 118.624 71.7979 118.624 69.2083C118.624 66.6187 117.6 64.1352 115.777 62.3041C113.953 60.473 111.48 59.4444 108.901 59.4444H52.0986C49.5198 59.4444 47.0467 60.473 45.2234 62.3041C43.4 64.1352 42.3756 66.6187 42.3756 69.2083C42.3756 71.7979 43.4 74.2814 45.2234 76.1125C47.0467 77.9436 49.5198 78.9722 52.0986 78.9722H78.1767L71.1721 95.4167H52.0986C45.1768 95.4167 38.5385 92.6554 33.6441 87.7404C28.7497 82.8254 26 76.1592 26 69.2083C26 62.2575 28.7497 55.5913 33.6441 50.6763C38.5385 45.7612 45.1768 43 52.0986 43H108.901C112.329 43 115.722 43.6779 118.889 44.995C122.055 46.3121 124.932 48.2425 127.356 50.6763C129.779 53.1098 131.702 55.9991 133.013 59.1789C134.325 62.3586 135 65.7665 135 69.2083Z" fill="white"/>
</svg>
