<svg width="160" height="160" viewBox="0 0 160 160" fill="none" xmlns="http://www.w3.org/2000/svg">
<rect width="160" height="160" fill="#3642B8"/>
<path d="M94.2296 34.4397C103.053 32.6891 112.499 32.0491 121.052 35.3573C125.22 37.135 129.299 39.6237 131.922 43.433C135.887 48.7457 136.49 55.8462 135.698 62.2357C133.689 74.3544 126.979 85.1254 118.935 94.156C114.886 98.3445 110.905 102.682 106.158 106.095C106.134 99.7565 105.834 93.4009 106.208 87.0724C108.329 83.9741 111.238 81.5159 113.389 78.4346C118.119 72.018 122.374 64.7617 123.092 56.6352C123.578 53.2017 122.715 49.6464 120.877 46.731C118.204 42.7795 113.561 40.7106 108.963 40.1181C100.251 38.6891 91.5257 41.1542 83.4478 44.2727C69.5846 49.9748 57.0194 58.7921 46.8681 69.8509C41.13 76.1321 36.2145 83.4425 33.9152 91.7248C33.1802 94.9145 32.6846 98.2599 33.3218 101.514C33.9118 104.382 36.1133 107.125 39.1375 107.467C44.1979 108.503 48.9078 105.767 52.8726 102.966C60.6639 96.8377 67.0527 89.1514 73.2662 81.4752C80.8519 71.7979 88.097 61.8328 94.5735 51.3665C94.6476 72.3566 94.6476 93.3433 94.5735 114.333C81.8599 121.58 67.6629 127.309 52.8085 126.987C44.5991 127.045 35.8672 124.437 30.3179 118.058C26.5217 113.971 25.1731 108.242 25.0045 102.804C24.8663 94.7282 27.9073 86.9877 31.7237 80.0192C38.7093 68.0733 48.6752 58.0607 59.9188 50.1272C70.2421 42.8167 81.8532 37.1654 94.2296 34.4397Z" fill="white"/>
</svg>
