<svg width="160" height="160" viewBox="0 0 160 160" fill="none" xmlns="http://www.w3.org/2000/svg">
<rect width="160" height="160" fill="#C3EAE4"/>
<path d="M101.865 42.0005C94.8782 41.9639 88.0286 43.9651 82.1363 47.7646C83.9318 49.1713 85.5608 50.7831 86.9909 52.568C91.5493 50.0488 96.6729 48.7619 101.867 48.8317C119.38 48.8317 131.829 61.8541 131.829 79.9999C131.829 98.0399 119.38 110.955 101.867 110.955C84.5645 110.955 72.1147 98.0393 72.1147 79.9999C72.0611 74.8312 73.1798 69.7189 75.3849 65.0562C74.1097 63.0173 72.4628 61.2424 70.532 59.8263C66.8489 65.8934 64.9123 72.88 64.94 79.9999C64.94 101.988 80.4489 118 101.863 118C123.069 118 139 101.668 139 79.9999C139 58.3314 123.071 42.0005 101.865 42.0005ZM68.6323 106.792C66.6733 107.671 64.6196 108.316 62.513 108.713C58.723 109.436 54.8692 109.758 51.0134 109.676H29.1741V50.2201H51.0134C54.8692 50.1376 58.723 50.4602 62.513 51.1826C76.3338 54.1711 83.9301 64.3115 83.9301 80.0024C84.0256 85.1412 83.0176 90.2398 80.9757 94.9461C82.2677 97.0317 83.869 98.9039 85.7233 100.497C89.2051 94.7332 91.1042 87.6884 91.1042 80.003C91.1042 61.0035 81.1867 48.4076 64.3062 44.672C60.2817 43.8279 56.1777 43.4341 52.0681 43.4978H22V116.507H52.0681C56.1738 116.604 60.2776 116.246 64.3062 115.439C67.465 114.758 70.5174 113.645 73.3794 112.131C71.53 110.614 69.928 108.812 68.6323 106.792Z" fill="#1A1919"/>
</svg>
