<svg width="160" height="160" viewBox="0 0 160 160" fill="none" xmlns="http://www.w3.org/2000/svg">
<rect width="160" height="160" fill="#EEEEEE"/>
<path d="M40.3047 100.298H39.8394V67.5163H40.3047V100.298ZM49.9119 84.6437H57.9855C57.9978 84.4141 57.9978 84.184 57.9855 83.9544C57.9855 80.7754 56.2622 78.0271 52.7209 78.0271C49.5759 78.0271 47.3529 80.6117 47.3529 83.7649C47.3207 84.5174 47.4437 85.2685 47.7144 85.9714C47.985 86.6744 48.3975 87.314 48.9261 87.8507C49.4547 88.3873 50.0881 88.8094 50.7869 89.0906C51.4857 89.3719 52.235 89.5063 52.988 89.4855C53.8458 89.5129 54.6983 89.3412 55.4786 88.9839C56.2589 88.6267 56.9459 88.0936 57.4857 87.4264L56.0382 86.1169C55.6629 86.5323 55.2041 86.8637 54.6918 87.0894C54.1795 87.3151 53.6253 87.4299 53.0655 87.4264C52.2853 87.4476 51.526 87.1722 50.9408 86.6558C50.3556 86.1394 49.988 85.4204 49.9119 84.6437ZM49.9119 83.0154C50.136 81.2923 51.2216 80.1206 52.7639 80.1206C54.3063 80.1206 55.3489 81.3871 55.547 83.0154H49.9119ZM63.0088 83.0757C63.0088 81.3526 64.0255 80.3446 65.4817 80.3446C66.9378 80.3446 67.8081 81.2923 67.8081 83.0154V89.2529H70.3241V82.2486C70.3241 79.664 68.8851 78.0271 66.4122 78.0271C65.719 78.0185 65.0357 78.1922 64.4308 78.5309C63.8258 78.8696 63.3206 79.3614 62.9657 79.9569V78.2338H60.4583V89.2357H62.9829V83.0154L63.0088 83.0757ZM83.8604 86.9957V78.2511H81.3358V79.8966C80.8851 79.3051 80.3017 78.8278 79.6327 78.5031C78.9637 78.1784 78.2278 78.0153 77.4843 78.0271C76.8122 78.0218 76.1461 78.1532 75.5265 78.4134C74.9069 78.6737 74.3467 79.0572 73.88 79.5408C73.4133 80.0244 73.0499 80.5978 72.8119 81.2262C72.5738 81.8547 72.4661 82.5249 72.4954 83.1963C72.4624 83.8686 72.5674 84.5405 72.8041 85.1706C73.0408 85.8007 73.404 86.3756 73.8715 86.86C74.3389 87.3443 74.9006 87.7278 75.522 87.9867C76.1434 88.2457 76.8112 88.3746 77.4843 88.3655C78.2466 88.3749 78.9995 88.1958 79.676 87.8441C80.3524 87.4924 80.9315 86.979 81.3616 86.3495V87.2111C81.3616 89.4166 80.1295 90.5797 77.9151 90.5797C76.5262 90.5776 75.1676 90.1737 74.0033 89.4166L73.0727 91.312C74.56 92.1875 76.2582 92.6403 77.984 92.6215C81.7666 92.6215 83.8948 90.8984 83.8948 87.0043M81.4133 83.2135C81.4092 83.6271 81.3216 84.0357 81.1559 84.4147C80.9901 84.7937 80.7497 85.1354 80.4488 85.4193C80.148 85.7032 79.7929 85.9235 79.405 86.0671C79.017 86.2106 78.604 86.2745 78.1908 86.2548C77.3818 86.2548 76.606 85.9334 76.034 85.3615C75.462 84.7895 75.1406 84.0138 75.1406 83.2049C75.1406 82.396 75.462 81.6203 76.034 81.0483C76.606 80.4764 77.3818 80.1551 78.1908 80.1551C78.606 80.1328 79.0215 80.1954 79.4117 80.3392C79.8019 80.4829 80.1587 80.7046 80.4603 80.9909C80.7619 81.2771 81.002 81.6219 81.1659 82.004C81.3297 82.3862 81.4139 82.7977 81.4133 83.2135ZM88.5649 84.6523H96.6384V83.9631C96.6384 80.784 94.8634 78.0357 91.3738 78.0357C88.2289 78.0357 86.0058 80.6203 86.0058 83.7735C85.9736 84.526 86.0967 85.2771 86.3673 85.9801C86.638 86.683 87.0505 87.3227 87.5791 87.8593C88.1077 88.3959 88.7411 88.818 89.4399 89.0993C90.1387 89.3805 90.8879 89.5149 91.6409 89.4941C92.4986 89.5208 93.3509 89.3488 94.1311 88.9916C94.9114 88.6345 95.5984 88.1017 96.1387 87.4351L94.6653 86.1169C94.2897 86.5319 93.8308 86.863 93.3186 87.0887C92.8064 87.3143 92.2523 87.4294 91.6926 87.4264C90.9104 87.4519 90.1479 87.1782 89.5604 86.6612C88.9729 86.1442 88.6045 85.4227 88.5304 84.6437M88.5304 82.9809C88.7631 81.2578 89.8487 80.0861 91.3824 80.0861C93.0454 80.0861 94.0104 81.3526 94.1741 82.9809H88.5304ZM101.455 75.2271H98.939V89.2357H101.455V75.2012V75.2271ZM107.064 83.0671C107.025 82.7201 107.06 82.3687 107.168 82.0363C107.275 81.704 107.452 81.3984 107.687 81.1399C107.922 80.8814 108.209 80.676 108.529 80.5374C108.85 80.3988 109.196 80.3301 109.546 80.336C111.088 80.3101 111.95 81.2923 111.95 83.0154V89.2529H114.466V82.2486C114.466 79.664 113.027 78.0271 110.554 78.0271C109.861 78.0202 109.178 78.1947 108.574 78.5332C107.969 78.8718 107.463 79.3626 107.107 79.9569V75.2012H104.591V89.2357H107.107V83.0154L107.064 83.0671ZM127.743 83.7735C127.747 83.011 127.598 82.2555 127.304 81.5519C127.01 80.8482 126.578 80.2107 126.033 79.6772C125.488 79.1437 124.842 78.725 124.132 78.446C123.422 78.167 122.664 78.0333 121.902 78.0529C121.135 78.0368 120.374 78.1741 119.661 78.4568C118.949 78.7395 118.3 79.1617 117.753 79.6988C117.207 80.2358 116.773 80.8768 116.478 81.584C116.182 82.2912 116.031 83.0503 116.034 83.8166C116.092 85.3304 116.734 86.7628 117.826 87.8132C118.917 88.8636 120.374 89.4504 121.889 89.4504C123.404 89.4504 124.86 88.8636 125.951 87.8132C127.043 86.7628 127.685 85.3304 127.743 83.8166M125.227 83.8166C125.255 84.2696 125.188 84.7234 125.033 85.1497C124.877 85.576 124.635 85.9657 124.323 86.2946C124.01 86.6235 123.633 86.8845 123.215 87.0614C122.797 87.2384 122.347 87.3274 121.893 87.3231C121.439 87.3108 120.992 87.2089 120.577 87.0232C120.162 86.8375 119.788 86.5717 119.477 86.241C119.165 85.9103 118.922 85.5213 118.762 85.0964C118.601 84.6714 118.526 84.2189 118.541 83.7649C118.512 83.3131 118.575 82.86 118.728 82.4339C118.882 82.0078 119.121 81.6177 119.431 81.288C119.741 80.9583 120.116 80.696 120.532 80.5173C120.949 80.3387 121.397 80.2477 121.85 80.2498C122.305 80.2598 122.755 80.3601 123.171 80.5448C123.588 80.7295 123.964 80.995 124.277 81.3259C124.59 81.6568 124.835 82.0466 124.997 82.4726C125.158 82.8987 125.234 83.3525 125.219 83.808M131.983 85.0744C131.983 82.1624 133.525 80.7668 135.731 80.7668H135.877V78.0443C135.023 78.004 134.18 78.2452 133.476 78.7308C132.773 79.2165 132.248 79.9196 131.983 80.7323V78.2511H129.467V89.2357H131.983V85.0572V85.0744ZM140.599 83.0584C140.56 82.7114 140.595 82.36 140.702 82.0277C140.81 81.6954 140.987 81.3898 141.222 81.1313C141.456 80.8728 141.744 80.6674 142.064 80.5288C142.385 80.3901 142.731 80.3215 143.081 80.3274C144.58 80.3274 145.433 81.3095 145.433 83.0154V89.2529H147.949V82.2486C147.949 79.664 146.51 78.0271 144.037 78.0271C143.344 78.0211 142.662 78.1959 142.057 78.5344C141.453 78.8728 140.947 79.3632 140.59 79.9569V78.2338H138.057V89.2357H140.573V83.0154L140.599 83.0584Z" fill="#1D1E1B"/>
<mask id="mask0_4_493" style="mask-type:luminance" maskUnits="userSpaceOnUse" x="13" y="62" width="135" height="39">
<path d="M13.3872 62.9674H147.923V100.298H13.3872V62.9674Z" fill="white"/>
</mask>
<g mask="url(#mask0_4_493)">
<path d="M49.9119 84.6437H57.9855C57.9978 84.4141 57.9978 84.184 57.9855 83.9545C57.9855 80.7754 56.2622 78.0271 52.7209 78.0271C49.5759 78.0271 47.3529 80.6117 47.3529 83.7649C47.3207 84.5175 47.4437 85.2686 47.7144 85.9715C47.985 86.6744 48.3975 87.3141 48.9261 87.8507C49.4547 88.3873 50.0881 88.8094 50.7869 89.0907C51.4857 89.3719 52.235 89.5063 52.988 89.4855C53.8458 89.5129 54.6983 89.3412 55.4786 88.984C56.2589 88.6267 56.9459 88.0936 57.4857 87.4265L56.0382 86.1169C55.6629 86.5323 55.2041 86.8637 54.6918 87.0894C54.1795 87.3151 53.6253 87.43 53.0655 87.4265C52.2853 87.4476 51.5261 87.1722 50.9408 86.6558C50.3556 86.1394 49.988 85.4204 49.9119 84.6437ZM49.9119 83.0154C50.136 81.2923 51.2216 80.1206 52.764 80.1206C54.3063 80.1206 55.3489 81.3871 55.547 83.0154H49.9119ZM63.0088 83.0757C63.0088 81.3526 64.0255 80.3446 65.4817 80.3446C66.9379 80.3446 67.8081 81.2923 67.8081 83.0154V89.2529H70.3241V82.2486C70.3241 79.664 68.8851 78.0271 66.4123 78.0271C65.719 78.0185 65.0357 78.1922 64.4308 78.5309C63.8258 78.8697 63.3206 79.3614 62.9657 79.9569V78.2339H60.4584V89.2357H62.9829V83.0154L63.0088 83.0757ZM83.8604 86.9957V78.2511H81.3358V79.8966C80.8851 79.3052 80.3017 78.8278 79.6327 78.5031C78.9638 78.1784 78.2278 78.0153 77.4843 78.0271C76.8122 78.0218 76.1461 78.1532 75.5265 78.4135C74.9069 78.6737 74.3467 79.0573 73.88 79.5408C73.4133 80.0244 73.0499 80.5978 72.8119 81.2262C72.5738 81.8547 72.4662 82.525 72.4954 83.1963C72.4624 83.8686 72.5675 84.5405 72.8041 85.1706C73.0408 85.8007 73.4041 86.3757 73.8715 86.86C74.3389 87.3443 74.9007 87.7278 75.522 87.9867C76.1434 88.2457 76.8112 88.3746 77.4843 88.3655C78.2466 88.3749 78.9995 88.1958 79.676 87.8441C80.3524 87.4924 80.9315 86.979 81.3616 86.3495V87.2111C81.3616 89.4166 80.1295 90.5797 77.9151 90.5797C76.5262 90.5777 75.1676 90.1737 74.0033 89.4166L73.0727 91.312C74.56 92.1875 76.2582 92.6403 77.984 92.6215C81.7666 92.6215 83.8948 90.8985 83.8948 87.0043L83.8604 86.9957ZM81.3789 83.2049C81.3747 83.6186 81.2871 84.0271 81.1214 84.4061C80.9557 84.7851 80.7152 85.1268 80.4144 85.4107C80.1135 85.6946 79.7585 85.9149 79.3705 86.0585C78.9825 86.2021 78.5696 86.2659 78.1563 86.2462C77.3474 86.2462 76.5716 85.9248 75.9995 85.3529C75.4275 84.7809 75.1062 84.0052 75.1062 83.1963C75.1062 82.3874 75.4275 81.6117 75.9995 81.0397C76.5716 80.4678 77.3474 80.1465 78.1563 80.1465C78.5716 80.1242 78.987 80.1869 79.3772 80.3306C79.7674 80.4743 80.1243 80.696 80.4259 80.9823C80.7275 81.2685 80.9675 81.6133 81.1314 81.9954C81.2953 82.3776 81.3794 82.7891 81.3789 83.2049ZM88.5304 84.6437H96.604V83.9545C96.604 80.7754 94.829 78.0271 91.3394 78.0271C88.1944 78.0271 85.9714 80.6117 85.9714 83.7649C85.9392 84.5175 86.0622 85.2686 86.3329 85.9715C86.6035 86.6744 87.016 87.3141 87.5446 87.8507C88.0732 88.3873 88.7066 88.8094 89.4054 89.0907C90.1042 89.3719 90.8535 89.5063 91.6065 89.4855C92.4642 89.5122 93.3164 89.3402 94.0967 88.9831C94.8769 88.6259 95.564 88.0931 96.1042 87.4265L94.6653 86.1169C94.2897 86.5319 93.8308 86.863 93.3186 87.0887C92.8064 87.3143 92.2523 87.4294 91.6926 87.4265C90.9104 87.4519 90.1479 87.1783 89.5604 86.6612C88.9729 86.1442 88.6046 85.4227 88.5304 84.6437ZM88.5304 82.9809C88.7631 81.2579 89.8487 80.0862 91.3824 80.0862C93.0454 80.0862 94.0104 81.3526 94.1741 82.9809H88.5304ZM101.455 75.2271H98.939V89.2357H101.455V75.2012V75.2271ZM107.064 83.0671C107.025 82.7201 107.06 82.3687 107.168 82.0364C107.275 81.704 107.452 81.3984 107.687 81.1399C107.922 80.8815 108.209 80.676 108.529 80.5374C108.85 80.3988 109.196 80.3301 109.546 80.336C111.088 80.3102 111.95 81.2923 111.95 83.0154V89.2529H114.466V82.2486C114.466 79.664 113.027 78.0271 110.554 78.0271C109.861 78.0202 109.178 78.1947 108.574 78.5333C107.969 78.8718 107.463 79.3626 107.107 79.9569V75.2012H104.591V89.2357H107.107V83.0154L107.064 83.0671ZM127.743 83.7735C127.747 83.011 127.598 82.2556 127.304 81.5519C127.01 80.8482 126.578 80.2107 126.033 79.6772C125.488 79.1437 124.842 78.725 124.132 78.446C123.422 78.167 122.664 78.0333 121.902 78.0529C121.135 78.0368 120.374 78.1742 119.661 78.4568C118.949 78.7395 118.3 79.1618 117.753 79.6988C117.207 80.2359 116.773 80.8768 116.478 81.584C116.182 82.2912 116.031 83.0503 116.034 83.8166C116.092 85.3304 116.734 86.7628 117.826 87.8132C118.917 88.8637 120.374 89.4505 121.889 89.4505C123.404 89.4505 124.86 88.8637 125.951 87.8132C127.043 86.7628 127.685 85.3304 127.743 83.8166V83.7735ZM125.227 83.7735C125.261 84.23 125.199 84.6885 125.046 85.1199C124.893 85.5514 124.653 85.9464 124.339 86.28C124.026 86.6136 123.647 86.8786 123.226 87.0581C122.804 87.2377 122.351 87.3279 121.893 87.3231C121.439 87.3108 120.992 87.2089 120.577 87.0232C120.162 86.8375 119.788 86.5717 119.477 86.241C119.165 85.9103 118.922 85.5213 118.762 85.0964C118.601 84.6714 118.526 84.219 118.541 83.7649C118.512 83.3131 118.575 82.86 118.728 82.4339C118.882 82.0078 119.121 81.6177 119.431 81.288C119.741 80.9583 120.116 80.696 120.532 80.5174C120.949 80.3388 121.397 80.2477 121.85 80.2499C122.305 80.2599 122.755 80.3601 123.171 80.5448C123.588 80.7295 123.964 80.995 124.277 81.3259C124.59 81.6569 124.835 82.0466 124.997 82.4727C125.158 82.8987 125.234 83.3526 125.219 83.808L125.227 83.7735ZM131.991 85.04C131.991 82.128 133.534 80.7323 135.739 80.7323H135.886V78.0443C135.032 78.004 134.188 78.2452 133.485 78.7309C132.781 79.2165 132.256 79.9196 131.991 80.7323V78.2511H129.475V89.2357H131.991V85.0572V85.04ZM140.608 83.024C140.568 82.677 140.604 82.3256 140.711 81.9933C140.818 81.661 140.995 81.3553 141.23 81.0969C141.465 80.8384 141.752 80.633 142.073 80.4943C142.394 80.3557 142.74 80.287 143.089 80.2929C144.588 80.2929 145.441 81.2751 145.441 82.9809V89.2185H147.957V82.2486C147.957 79.664 146.518 78.0271 144.046 78.0271C143.353 78.0211 142.67 78.1959 142.066 78.5344C141.462 78.8729 140.956 79.3632 140.599 79.9569V78.2339H138.057V89.2357H140.573V83.0154L140.608 83.024ZM14.0162 81.1114C12.1034 87.4006 14.6624 93.6899 19.7547 95.1459C19.9188 95.198 20.0856 95.2412 20.2545 95.2751C18.3675 93.4055 17.592 88.96 18.5743 83.136C19.5307 77.4585 21.3057 73.5385 23.9509 72.0739C19.7547 72.3582 15.6016 75.9249 14.0162 81.1114Z" fill="#1D1E1B"/>
</g>
<path d="M32.4208 86.3754C34.3336 80.0862 31.7745 73.7969 26.6995 72.3409C26.5383 72.2888 26.3744 72.2456 26.2084 72.2117C28.2849 74.1415 28.845 78.5268 27.8627 84.3508C26.9063 90.0283 25.0538 93.7329 22.4861 95.4129C26.7254 95.1286 30.844 91.5619 32.4208 86.3754ZM36.5738 62.9674H30.2839C29.9393 66.4135 25.3209 69.1015 19.6686 68.9982C18.0413 68.9793 16.4262 68.715 14.8779 68.2142C17.4531 69.684 20.3653 70.4617 23.3305 70.4714C29.8272 70.5662 35.2469 67.3354 36.5738 62.9502" fill="#1D1E1B"/>
</svg>
