<svg width="160" height="160" viewBox="0 0 160 160" fill="none" xmlns="http://www.w3.org/2000/svg">
<rect width="160" height="160" fill="#FDDB32"/>
<path d="M49 128.754V113.246C49 111.982 48.0173 111 46.7545 111H31.2456C29.9824 111 29 111.982 29 113.246V128.754C29 130.018 29.9824 131 31.2456 131H46.7545C48.0173 131 49 130.018 49 128.754Z" fill="#191E3B"/>
<path d="M131 115.723V39.2525C131 33.5643 126.433 29 120.741 29H44.2197C42.6738 29 41.7605 29.562 40.7768 30.5449L25.5288 45.9232C24.4045 47.0467 25.1774 48.7322 26.8639 48.7322H96.0773L53.1437 91.6368C52.3708 92.4093 52.0195 93.1817 52.0195 94.4458V105.751C52.0195 107.085 52.9331 107.998 54.268 107.998H65.5812C66.916 107.998 67.689 107.647 68.3916 106.875L111.325 63.9699V133.137C111.325 134.823 113.011 135.595 114.136 134.472L129.524 119.164C130.438 118.18 131 117.268 131 115.723Z" fill="#191E3B"/>
</svg>
