<svg width="50" height="50" viewBox="0 0 50 50" fill="none" xmlns="http://www.w3.org/2000/svg">
<path d="M4.15008 32.6347C4.61727 34.0863 5.91669 34.8806 6.07182 34.8861C16.5627 40.0351 7.72313 35.6967 13.2378 38.403C27.1408 44.6549 26.8721 44.9084 28.7769 44.2684C30.8802 43.5606 29.5612 45.0356 40.7953 26.6528C41.5811 25.387 41.8006 23.23 40.8416 21.57C34.243 8.82919 33.238 6.06394 30.2983 5.93016C30.1043 5.93665 31.6189 5.67514 15.5223 8.63199C14.1651 8.89866 12.4639 10.1086 11.5974 11.8277C11.5643 11.8937 12.112 10.5451 4.36553 29.7001C3.91466 30.6225 3.83823 31.6626 4.15008 32.6347Z" fill="black"/>
<path d="M46.4723 22.0012V40.5482C46.4723 42.7343 44.7034 44.5121 42.5286 44.5121H18.1866C16.0126 44.5121 14.2429 42.7343 14.2429 40.5482V22.0012C14.2429 20.2574 14.9762 18.5822 16.2552 17.4051C28.355 6.26837 28.2643 5.88969 30.2149 5.86996C32.4728 5.86996 31.7687 5.72226 44.4601 17.4051C45.7391 18.5822 46.4723 20.2574 46.4723 22.0012Z" fill="#FB0001"/>
<path d="M46.4729 22.0016V40.5485C46.4729 42.7346 44.7035 44.5124 42.5292 44.5124H30.3579V5.8695C32.4467 5.86513 32.0613 5.99214 44.4604 17.4055C45.7392 18.5826 46.4729 20.2577 46.4729 22.0016Z" fill="#F7C800"/>
<path d="M31.5727 13.5483C31.5727 15.1521 29.1433 15.1517 29.1433 13.5483C29.1433 11.9446 31.5727 11.9449 31.5727 13.5483Z" fill="white"/>
<path d="M34.4536 22.433C29.3707 34.5484 30.8429 31.0393 28.5502 36.5034C28.3554 36.9683 27.9051 37.2472 27.4313 37.2472C26.5719 37.2472 25.9769 36.3684 26.3132 35.5656C26.9208 34.1178 29.4927 27.9882 32.2174 21.4951C32.4769 20.8775 33.1876 20.5864 33.8052 20.8459C34.4221 21.1047 34.7131 21.8161 34.4536 22.433Z" fill="white"/>
<path d="M28.1215 24.3403C28.1215 21.9998 26.4072 20.0956 24.3001 20.0956C22.193 20.0956 20.4788 21.9998 20.4788 24.3403C20.4788 26.6808 22.193 28.5849 24.3001 28.5849C26.4072 28.5849 28.1215 26.6808 28.1215 24.3403ZM24.3001 26.1596C23.5434 26.1596 22.9042 25.3264 22.9042 24.3403C22.9042 23.3541 23.5434 22.521 24.3001 22.521C25.0568 22.521 25.696 23.3541 25.696 24.3403C25.696 25.3264 25.0568 26.1596 24.3001 26.1596Z" fill="white"/>
<path d="M36.5372 29.7159C34.4301 29.7159 32.7158 31.6201 32.7158 33.9605C32.7158 36.301 34.4301 38.2052 36.5372 38.2052C38.6443 38.2052 40.3585 36.301 40.3585 33.9605C40.3585 31.6201 38.6443 29.7159 36.5372 29.7159ZM36.5372 35.7798C35.7805 35.7798 35.1413 34.9467 35.1413 33.9605C35.1413 32.9744 35.7805 32.1413 36.5372 32.1413C37.2939 32.1413 37.9331 32.9744 37.9331 33.9605C37.9331 34.9467 37.2939 35.7798 36.5372 35.7798Z" fill="white"/>
</svg>
