<svg width="160" height="160" viewBox="0 0 160 160" fill="none" xmlns="http://www.w3.org/2000/svg">
<rect width="160" height="160" fill="#96DC14"/>
<path fill-rule="evenodd" clip-rule="evenodd" d="M125.344 53.2355C126.203 54.7113 126.218 56.5253 125.39 58.0165C122.463 62.5977 121.145 68.0244 121.65 73.4357V73.4203C122.662 88.5935 114.231 104.505 98.8876 113.467C83.5439 122.43 65.5943 121.907 52.9637 113.513V113.529C48.5338 110.408 43.1688 108.871 37.7579 109.163C36.0564 109.147 34.4929 108.225 33.6499 106.749C32.8068 105.273 32.7762 103.459 33.6039 101.968C36.5316 97.3869 37.8499 91.9602 37.344 86.5489V86.5643C36.3477 71.3911 44.7783 55.48 60.1221 46.5329C75.4658 37.5704 93.4154 38.093 106.046 46.4867C110.491 49.6075 115.841 51.1448 121.252 50.8527C122.923 50.8681 124.486 51.7751 125.344 53.2355Z" fill="white"/>
</svg>
