<svg width="160" height="160" viewBox="0 0 160 160" fill="none" xmlns="http://www.w3.org/2000/svg">
<rect width="160" height="160" fill="#CD2026"/>
<path fill-rule="evenodd" clip-rule="evenodd" d="M126.816 46.7884C125.067 47.6047 123.667 46.7884 121.452 51.2197C114.688 65.2134 109.44 76.525 103.143 92.7344C103.377 79.3237 105.709 68.7118 107.108 55.6511C107.341 53.2022 107.691 49.937 107.691 47.4881C107.691 45.6222 105.709 45.2724 101.861 47.2548C99.7615 48.3044 97.196 48.1878 96.1465 50.7533C91.9484 61.5984 82.2694 91.6848 77.8381 108.71C76.7885 112.792 80.7534 113.492 82.0362 109.294C84.9515 99.1481 91.7151 76.6416 95.7966 65.0968C95.4468 75.7087 92.5314 92.3845 93.8142 101.247C94.2807 104.046 96.8462 105.212 98.1289 107.544C99.0618 109.177 100.578 109.41 101.394 107.078C105.359 96.3494 112.939 77.4579 120.286 62.4147C118.886 69.0617 113.289 97.2823 111.773 108.594C111.423 110.81 114.222 110.926 116.671 114.308C117.254 115.124 119.353 115.941 119.703 113.958C120.985 107.195 129.615 63.3476 132.88 49.4705C133.929 45.5056 133.696 43.6398 126.816 46.7884ZM70.7246 78.624C73.64 74.1927 74.5729 75.1256 75.2725 73.7263C76.2055 72.0937 75.6224 70.4611 72.3572 70.8109C72.3572 70.8109 71.1911 70.9275 68.9754 71.1607C72.4738 62.1815 75.5058 54.4849 77.7214 48.7708C78.5377 46.7884 78.6544 45.389 77.3716 45.0392C76.0888 44.6893 72.3572 46.7884 70.0249 47.1382C69.3252 47.3715 68.5089 48.0711 68.2757 48.6542C64.7773 56.584 61.5121 64.6303 58.3635 72.7933C54.6318 73.3764 50.3171 74.1927 45.5359 75.3589C49.0344 66.4962 52.5328 57.7501 55.9146 49.3539C57.5472 45.2724 53.2325 44.8059 51.4833 49.0041C47.7516 58.1 44.02 67.3125 40.5215 76.525C37.1397 77.3413 33.5247 78.2742 29.793 79.4403C27.1109 80.2566 26.9943 80.9563 28.1604 82.5889C28.8601 83.5218 30.1429 83.4052 30.7259 84.1049C32.3585 85.7375 33.2915 87.8366 36.0902 88.0698C33.5247 94.8334 31.0758 101.714 28.7435 108.594C27.3441 112.792 31.4256 113.725 33.0582 109.177C35.6237 101.947 38.3059 94.6002 41.1046 87.3701C43.4369 86.787 48.9178 85.6209 54.1654 84.5714C50.0839 95.7663 47.4018 104.279 46.3522 108.361C46.119 109.177 46.4689 109.643 46.7021 109.877C48.1015 111.859 49.3842 111.976 51.1334 114.425C51.5999 115.124 52.5328 115.241 53.2325 114.658C53.4657 114.425 53.6989 114.075 53.8155 113.842C57.314 103.23 61.1622 92.6177 65.1271 82.1225C66.4099 81.7726 69.092 81.0729 70.7246 78.624Z" fill="white"/>
<path fill-rule="evenodd" clip-rule="evenodd" d="M73.5233 95.9995C73.2901 96.2328 72.9402 96.466 72.707 96.8158C72.3572 95.8829 72.1239 94.8334 71.7741 93.9005C72.707 92.851 73.5233 91.6848 74.223 90.6353C77.255 85.8541 71.3076 83.172 68.6255 86.2039C67.2262 87.8365 67.576 89.4691 67.9258 90.8685L68.3923 92.6177C67.6926 93.3174 66.7597 94.3669 65.5936 95.6497C62.6782 99.0315 63.4945 103.463 66.6431 104.512C68.5089 105.095 70.3747 104.279 71.8907 102.88C72.0073 103.113 72.0073 103.346 72.1239 103.463C72.9402 105.562 75.5058 104.862 74.4562 102.413C74.3396 101.947 74.1064 101.364 73.8732 100.664C74.3396 100.081 74.8061 99.498 75.2725 98.7983C77.255 95.9995 75.5058 94.3669 73.5233 95.9995ZM71.5409 89.4691C71.3076 89.819 70.9578 90.0522 70.7246 90.4021C70.608 90.1688 70.608 89.9356 70.4913 89.7024C69.675 86.4372 73.5233 87.3701 71.5409 89.4691ZM69.5584 99.6146C68.3923 100.314 67.4594 99.6146 69.092 97.3989C69.3252 97.0491 69.675 96.6992 69.9083 96.3494C70.1415 97.1657 70.3747 97.982 70.7246 98.7983C70.2581 99.0315 69.9083 99.3813 69.5584 99.6146Z" fill="white"/>
</svg>
