<svg width="160" height="160" viewBox="0 0 160 160" fill="none" xmlns="http://www.w3.org/2000/svg">
<rect width="160" height="160" fill="#EEEEEE"/>
<g clip-path="url(#clip0_4_502)">
<path d="M9.23366 51V109H151.766V51H9.23366Z" fill="#0058A3"/>
<path d="M11.9952 80.5438C11.9952 94.5906 40.6799 106.281 80.4109 106.281C120.142 106.281 148.827 94.5906 148.827 80.5438C148.827 66.4969 120.231 54.8062 80.5 54.8062C40.769 54.8062 11.9952 66.4969 11.9952 80.5438Z" fill="#FFDB00"/>
<path d="M117.202 90.6031H106.601C107.047 90.0594 107.403 89.425 107.581 88.7906L113.906 71.2094V71.1188C114.173 70.575 114.262 69.9406 114.262 69.3063H132.168C132.079 69.85 132.168 70.3031 132.435 70.7562C132.435 70.8469 132.524 70.9375 132.524 71.1188C133.059 72.3875 138.76 87.3406 139.206 88.7C139.384 89.3344 139.74 89.9688 140.186 90.5125H126.823C126.823 89.8781 126.734 89.2438 126.378 88.7C126.378 88.7 126.2 88.1563 125.843 87.5219L125.754 87.25H118.004L117.915 87.6125C117.915 87.6125 117.648 88.2469 117.469 88.7906L117.38 88.9719C117.291 89.425 117.202 90.0594 117.202 90.6031ZM121.834 76.4656C121.745 76.9188 121.656 77.3719 121.478 77.825C121.478 77.9156 121.211 78.55 120.944 79.4563C120.587 80.3625 120.231 81.5406 119.786 82.8094H124.24L122.369 77.9156C122.102 77.3719 121.924 76.9188 121.834 76.4656ZM57.4274 90.6031H44.5996C44.8668 90.0594 44.9559 89.425 44.8668 88.7906V71.2094C44.9559 70.575 44.7777 69.9406 44.5996 69.3969H57.4274C57.1602 69.9406 57.0712 70.575 57.1602 71.2094V78.9125C57.1602 78.9125 61.2581 73.5656 62.238 72.2969C62.5943 71.8438 63.8414 70.1219 63.8414 69.3969H77.2039C76.1349 70.2125 75.244 71.1187 74.4423 72.1156C73.7296 73.0219 69.5427 78.0969 69.5427 78.0969C69.5427 78.0969 75.6894 87.4313 76.4913 88.7906C76.9367 89.425 77.4711 90.0594 78.0056 90.6031H62.5052C62.327 89.6063 61.8817 88.6094 61.2581 87.7937C60.6345 86.8875 57.4275 81.9937 57.0712 81.45V88.8813C57.0712 89.3344 57.1602 89.9688 57.4274 90.6031ZM104.998 90.6031H80.1436C80.4108 90.0594 80.5 89.425 80.4109 88.7906V71.2094C80.5 70.575 80.3217 69.9406 80.1436 69.3969H104.909V75.2875C104.374 75.0156 103.751 74.925 103.127 75.0156H92.7044V77.825H102.771V82.3562H92.7044V85.1656H103.127C103.751 85.2563 104.374 85.075 104.909 84.8938L104.998 90.6031ZM38.4529 90.6031H24.5559C24.8232 90.0594 24.9123 89.425 24.8232 88.7906V71.2094C24.9123 70.575 24.7341 69.9406 24.5559 69.3969H38.5419C38.2747 69.9406 38.1856 70.575 38.2747 71.2094V88.7906C38.0965 89.3344 38.2747 89.9688 38.4529 90.6031ZM137.78 73.9281C136.979 73.9281 136.266 73.5656 135.731 73.0219C135.197 72.4781 134.93 71.7531 135.019 71.0281C135.019 70.9375 135.019 70.9375 135.019 70.8469C135.019 69.3969 136.266 68.2188 137.691 68.2188H137.78H137.869C139.384 68.2188 140.542 69.4875 140.542 71.0281V71.2094C140.542 71.9344 140.186 72.6594 139.74 73.1125C139.206 73.5656 138.493 73.9281 137.78 73.9281ZM137.602 68.7625C137.068 68.7625 136.533 69.0344 136.088 69.4875C135.731 69.9406 135.464 70.4844 135.553 71.0281V71.2094C135.553 72.3875 136.533 73.3844 137.78 73.3844H137.869C138.493 73.3844 139.027 73.1125 139.473 72.6594C139.918 72.2062 140.096 71.6625 140.096 71.0281V70.9375C140.096 69.7594 139.117 68.7625 137.869 68.7625H137.602ZM137.246 72.6594H136.711V69.3063H137.958C138.582 69.3063 139.027 69.7594 139.027 70.3937C139.027 70.8469 138.76 71.2094 138.404 71.3906L139.117 72.6594H138.582L137.958 71.4813H137.246V72.6594ZM137.246 69.85V71.0281H137.958C138.226 71.0281 138.493 70.7563 138.493 70.4844C138.493 70.1219 138.226 69.85 137.958 69.85H137.246Z" fill="#0058A3"/>
</g>
<defs>
<clipPath id="clip0_4_502">
<rect width="143" height="58" fill="white" transform="translate(9 51)"/>
</clipPath>
</defs>
</svg>
