<svg width="160" height="160" viewBox="0 0 160 160" fill="none" xmlns="http://www.w3.org/2000/svg">
<rect width="160" height="160" fill="#FF8000"/>
<path d="M79.087 35.9977C82.4825 35.3381 85.6693 39.2122 87.3308 39.4128C89.5683 41.6572 92.7162 43.3133 94.9646 45.5995C95.0582 45.6946 95.7666 45.9816 95.9392 46.0517C96.2721 44.1934 96.2283 41.9276 96.4678 40.3042C96.741 38.451 101.298 38.9226 102.748 39.1036C104.303 39.2977 106.271 39.284 107.93 39.8125C109.571 41.5753 109.351 42.919 109.875 45.0558C110.962 49.4843 110.86 54.0004 111.601 58.4926C111.743 59.3528 111.765 61.4608 112.148 62.1025C114.352 65.795 117.302 69.0623 119.712 72.6383C120.137 73.2689 120.452 73.9501 120.869 74.5866C121.925 76.2059 123.326 77.979 123.864 79.8506C124.199 81.0195 123.658 82.3838 122.462 82.7284C120.711 83.2327 118.67 83.3666 116.856 83.5961C115.814 83.728 114.832 83.7158 113.806 83.92C113.394 84.3725 113.179 84.7825 113.157 85.4006C112.935 91.9049 113.203 98.4224 112.702 104.919C112.602 105.631 112.734 106.671 112.6 107.354C112.083 109.998 111.951 112.583 111.734 115.256C111.676 115.97 111.656 117.193 111.51 117.847C111.15 119.457 111.029 121.055 110.68 122.65C110.623 122.905 110.142 123.49 109.932 123.643C108.532 124.664 106.48 124.218 104.865 124.22C102.952 124.175 101.069 124.089 99.1849 123.941C99.0609 121.11 99.883 116.801 100.045 113.865C100.834 100.991 101.017 88.0867 100.593 75.1955C100.496 72.5633 100.427 69.7734 99.8944 67.2185C99.5987 65.8015 97.3611 65.5539 96.5346 66.129C94.7935 67.3405 92.7797 70.9537 91.7073 72.8078C90.6389 74.6549 89.9126 76.9971 88.9169 78.8996C86.0768 86.5376 84.27 94.1719 84.7266 102.382C84.8143 103.957 84.5545 105.901 85.1102 107.281C88.6333 109.581 93.6842 107.091 92.7275 111.695C92.5451 112.573 92.7172 114.291 92.5216 115.027C91.7627 117.882 92.1109 120.961 91.4199 123.752C90.0312 123.988 86.2539 123.88 84.6655 123.879C80.4074 123.872 76.0225 123.946 71.777 123.782C71.5321 122.484 71.6369 120.927 71.535 119.553C71.4364 118.225 71.2049 116.884 71.1012 115.592C70.9123 112.914 70.7878 110.233 70.7279 107.549C71.2287 106.76 71.8818 106.121 72.591 105.521C75.2494 103.274 75.2248 102.045 75.5111 98.8147C75.5848 96.752 75.5332 94.6456 75.5549 92.5759L75.7882 80.9882C75.8412 79.0943 75.9882 77.1403 76.0208 75.2499C76.0464 73.7625 76.8023 70.2661 75.7058 69.2011C75.2567 69.0228 74.1549 68.9956 73.9862 69.4858C73.3827 71.2399 73.6654 73.4119 73.3684 75.2539C73.0357 77.3165 72.9745 79.451 72.929 81.5164C72.9006 83.1628 72.8871 84.8094 72.8886 86.4561C72.8856 88.1221 73.2148 91.9292 71.0007 92.3443C68.8773 92.7187 68.206 91.4687 68.1703 89.5806C68.083 84.955 68.4873 80.3627 68.5462 75.7441C68.5834 73.7502 68.8924 71.7387 68.5991 69.7516C68.5214 69.2614 68.3275 69.1267 67.8631 69.0487C65.8215 68.7054 65.9285 71.0687 65.8868 72.4595C65.7714 76.3158 65.7242 80.1846 65.5158 84.0401C65.416 85.8842 65.5863 87.8044 65.4128 89.6523C65.2419 90.7099 65.1098 92.0088 63.8557 92.2877C62.8471 92.5121 62.1762 92.3785 61.2944 91.8833C60.3149 90.0019 60.6651 87.4622 60.7318 85.3576L61.1112 74.6614C61.1458 73.662 61.3381 71.1993 61.2968 70.3943C61.2829 70.1551 61.2132 69.9226 61.0933 69.7152C60.3419 68.4217 58.7777 68.9165 58.6461 70.6256C58.5156 72.3224 58.4482 73.9809 58.3522 75.674C58.0584 81.3032 57.9406 86.94 57.9987 92.5765C58.0098 94.066 58.0069 95.5557 57.99 97.0452C57.9741 98.0204 57.8826 99.302 57.973 100.24C58.1993 102.586 59.4981 104.914 61.4307 106.279C61.8199 106.554 62.4927 107.092 62.7582 107.447L62.7904 107.49C63.2078 108.043 63.3588 110.112 63.3629 110.814C63.3791 113.569 63.4558 116.269 63.9198 118.992C63.9584 119.218 63.9441 119.52 63.9679 119.755C63.9958 121.058 64.2674 122.32 64.1584 123.625C64.033 123.75 63.9127 123.806 63.7456 123.856C63.1749 124.027 52.5182 124.341 51.6965 124.245C50.874 124.15 50.2478 123.85 49.5291 123.465C48.5262 121.5 47.0644 103.103 47.0075 100.007L46.7965 90.2902C46.7574 88.4029 46.6519 86.5436 46.5472 84.6616C46.4927 83.681 44.7172 83.7459 44.0343 83.6395C42.2135 83.3559 39.5976 83.3548 37.8546 82.8438C33.2222 81.5487 37.939 75.5519 39.4662 73.3391C43.0073 68.2084 46.7081 62.9793 51.0519 58.4835C51.891 57.6151 52.5726 56.5965 53.464 55.678C55.5832 53.526 57.7261 51.3973 59.8922 49.2926C60.4704 48.741 60.9014 48.7367 61.4717 48.2832C61.5956 48.1847 62.0076 47.4637 62.1501 47.2945C62.6141 46.7431 63.7189 46.2019 64.2225 45.7481C65.3816 44.7036 66.585 43.8936 67.7842 42.9109C68.0066 42.7286 68.4917 42.5964 68.6251 42.4855C69.5252 41.7368 70.4383 40.9775 71.3486 40.2431C71.9777 39.7356 72.713 39.3539 73.3894 38.9128C73.9885 38.519 74.5207 38.0138 75.1407 37.6517C75.9166 37.1985 76.6982 36.7498 77.5121 36.3686C78.0127 36.1343 78.544 36.0793 79.087 35.9977Z" fill="white"/>
</svg>
