<svg width="160" height="160" viewBox="0 0 160 160" fill="none" xmlns="http://www.w3.org/2000/svg">
<rect width="160" height="160" fill="#EEEEEE"/>
<path d="M124.749 110.007C123.597 98.3666 118.096 85.69 118.096 85.69C108.883 66.6773 88.3882 60.5174 76.7645 71.4229L76.6834 71.4401L74.8613 72.7727C83.2932 59.2192 104.684 59.821 118.459 75.7817C118.459 75.7817 124.578 83.1925 128.922 94.2184C130.078 90.3239 130.787 86.2918 131 82.1694C123.831 72.3944 115.749 66.6558 115.749 66.6558C98.352 54.8346 77.524 59.8296 72.8686 75.124L72.8088 75.1885L71.9085 77.2561C72.476 61.261 91.2941 51.0175 111.136 57.8995C111.136 57.8995 120.477 61.3513 129.908 69.0071C129.78 68.3967 129.652 67.7863 129.485 67.1759C128.465 63.1352 126.989 59.3009 125.081 55.733C114.081 50.9358 104.335 50.0417 104.335 50.0417C83.3914 48.5758 67.8461 63.3673 71.4049 78.967L71.3793 79.0487L71.614 81.3011C64.1764 67.1587 75.3819 48.8252 95.9795 44.7759C95.9795 44.7759 105.542 43.1037 117.302 44.8704C114.32 41.6981 110.915 38.9169 107.138 36.5698C95.3479 37.9626 86.5533 42.0721 86.5533 42.0721C67.701 51.3398 61.5734 71.9946 72.3992 83.7126L72.412 83.7814L73.7433 85.6298C60.2804 77.1272 60.8907 55.5826 76.7218 41.7153C76.7218 41.7153 84.1211 35.4995 95.126 31.102C90.5858 29.7308 85.8791 29.0344 81.1298 29C71.9298 36.054 66.5575 43.7184 66.5575 43.7184C54.827 61.2524 59.7769 82.2167 74.9595 86.9151L75.015 86.9667L77.0803 87.8909C61.2064 87.3149 51.0378 68.358 57.8695 48.3652C57.8695 48.3652 61.0144 39.7465 67.9528 30.6851C63.9801 31.721 60.2207 33.2341 56.696 35.1384C52.2155 45.9064 51.3792 55.2774 51.3792 55.2774C49.9155 76.3792 64.6116 92.039 80.0971 88.4583L80.1654 88.4798L82.4185 88.2262C68.3752 95.7358 50.1588 84.4391 46.1604 63.6811C46.1604 63.6811 44.556 54.409 46.1604 42.8544C42.815 46.0483 39.8877 49.715 37.464 53.8072C38.966 65.1942 42.8022 73.5593 42.8022 73.5593C52.0064 92.5635 72.5016 98.7277 84.1296 87.8178L84.2149 87.8006L86.0328 86.4723C77.6094 100.026 56.2096 99.424 42.448 83.4633C42.448 83.4633 35.3901 74.5781 31.7033 64.2357C31.7076 63.7499 31.5625 63.2857 31.2638 62.916C28.5935 66.4443 28.8283 74.3016 29.2796 77.7892C35.9619 85.7846 44.7053 92.6107 44.7053 92.6107C62.0983 104.44 82.9134 99.4455 87.5689 84.1554L87.6372 84.0909L88.5418 82.0147C87.9743 98.0098 69.1519 108.258 49.3053 101.367C49.3053 101.367 40.7497 98.1989 31.7332 91.2094C31.81 91.5404 31.874 91.8843 31.9594 92.2196C33.0304 96.4064 34.5794 100.374 36.5849 104.062C47.0736 108.412 56.12 109.233 56.12 109.233C77.0504 110.708 92.5999 95.9078 89.0411 80.3081L89.071 80.2265L88.8234 77.9654C96.2696 92.1078 85.0598 110.471 64.458 114.491C64.458 114.491 55.4543 116.077 44.1677 114.542C46.8688 117.409 49.9155 119.98 53.278 122.181C64.9743 120.758 73.6409 116.696 73.6409 116.696C92.5018 107.432 98.6336 86.7732 87.8036 75.0681L87.7823 74.9779L86.4595 73.151C99.9223 81.645 99.3207 103.181 83.4852 117.061C83.4852 117.061 75.9324 123.38 64.7695 127.786C67.8504 128.831 71.0123 129.574 74.217 130H78.7828C88.162 122.877 93.6326 115.049 93.6326 115.049C105.376 97.5198 100.426 76.5426 85.239 71.8571L85.175 71.7926L83.1226 70.877C99.0006 71.4573 109.169 90.4142 102.338 110.407C102.338 110.407 98.9238 119.761 91.3582 129.248C91.9684 129.11 92.5529 128.986 93.1546 128.826C96.9908 127.846 100.601 126.415 103.959 124.67C108.653 113.67 109.515 103.95 109.515 103.95C110.987 82.8744 96.2867 67.1974 80.7927 70.7824L80.7287 70.7652L78.4884 71.006C92.5188 63.5092 110.744 74.8016 114.751 95.5596C114.751 95.5596 117.063 105.09 115.331 116.378C114.998 118.007 114.32 120.371 113.014 122.89C112.617 123.591 112.122 124.42 111.525 125.383C111.538 125.37 111.542 125.358 111.542 125.358C111.538 125.383 111.512 125.405 111.495 125.435C111.482 125.465 111.482 125.469 111.482 125.491C111.247 125.895 111.196 126.398 111.397 126.849C111.631 127.378 112.161 127.717 112.745 127.705C116.065 123.824 123.113 114.853 124.749 110.007Z" fill="#D9222A"/>
</svg>
