<svg width="160" height="160" viewBox="0 0 160 160" fill="none" xmlns="http://www.w3.org/2000/svg">
<rect width="160" height="160" fill="black"/>
<path d="M99 38.8768V90.8413L88.8994 76.8382L73.1753 54.9584L69.7902 50.309C68.7507 48.9029 67.639 47.5519 66.4598 46.2612C63.9775 43.5466 60.9676 41.3687 57.6149 39.8614C52.6694 37.7799 47.167 37.433 42 38.8768L42 122.129H61V70.1649L71.1006 84.168L86.8247 106.048L90.2098 110.697C91.2355 112.097 92.3478 113.43 93.5402 114.69C96.0152 117.427 99.026 119.624 102.385 121.145C107.333 123.218 112.832 123.565 118 122.129V38.8768H99Z" fill="white"/>
</svg>
