<svg width="160" height="160" viewBox="0 0 160 160" fill="none" xmlns="http://www.w3.org/2000/svg">
<rect width="160" height="160" fill="black"/>
<path d="M45.913 34.1845C52.7864 33.1829 64.85 36.4858 71.3926 38.6503C76.1527 35.783 80.5767 35.4301 85.9374 35.7917C84.997 36.1727 84.0241 36.5035 83.1831 37.0772C75.5801 42.2645 71.0319 53.385 71.9883 62.2264C68.7952 60.7231 60.8056 55.5648 61.4159 51.1364C61.9779 47.0598 66.0692 42.6696 69.1967 40.0731C64.8638 38.7298 45.8919 33.9009 45.0922 41.7007C44.4945 47.5318 55.5987 56.0956 60.4175 59.3032C73.3658 67.9224 90.1116 75.8065 105.895 77.1612C124.608 77.624 110.63 63.5703 104.078 58.1229C104.091 57.3896 103.994 56.3057 103.946 55.5417C109.338 59.3298 118.277 66.8827 120.489 73.0571C120.993 74.4632 121.284 76.1558 120.589 77.5477C119.916 78.8948 118.505 79.6171 117.133 80.086C105.852 83.9413 83.3399 74.662 73.1304 69.69C74.8006 74.4159 77.2325 77.2076 81.0443 80.3053C77.0418 79.8545 73.9981 79.0251 70.5617 76.8075C65.4793 73.5574 61.9187 68.4204 60.6753 62.5436C58.4338 61.073 56.2405 59.5307 54.0992 57.9195C48.7802 53.8893 40.4542 47.0335 39.1067 40.2161C38.2708 35.9868 42.5154 34.6072 45.913 34.1845Z" fill="#F17D00"/>
<path d="M119.393 95.107L127.897 95.1002C129.715 102.322 131.263 110.073 132.967 117.379C133.024 116.723 132.972 115.522 132.961 114.819L132.893 110.137L132.658 95.1014L138.955 95.1034C138.956 98.085 139.108 125.092 138.85 125.477L130.519 125.47L125.402 103.239C125.265 105.148 125.469 108.967 125.522 111.028L125.858 125.471L119.392 125.468L119.393 95.107Z" fill="white"/>
<path d="M87.422 95.1L93.8845 95.1074L93.8854 100.465L93.8883 113.081C93.8911 114.807 94.0147 119.049 93.6977 120.521C93.4429 121.737 92.8447 122.855 91.9728 123.74C88.944 126.801 82.1456 126.769 79.1064 123.715C78.1997 122.786 77.5901 121.608 77.3542 120.332C77.107 118.981 77.2184 113.808 77.2184 112.173L77.2127 95.1047L83.6884 95.1029L83.6836 110.936C83.6827 113.526 83.6261 116.13 83.7535 118.713C83.879 121.269 87.0399 121.44 87.339 118.916C87.4626 117.87 87.4286 116.843 87.4249 115.795L87.4136 111.176L87.422 95.1Z" fill="white"/>
<path d="M98.4919 95.1056C101.365 95.1005 104.288 95.0562 107.128 95.116C112.734 95.2343 115.563 99.7475 115.188 104.996C114.967 108.083 114.541 110.06 112.221 112.208L116.131 125.442L109.494 125.439C108.345 120.512 106.79 115.045 105.801 110.15C106.059 109.874 107.089 109.838 107.688 109.205C108.576 108.267 108.797 106.681 108.831 105.443C108.873 103.912 108.802 101.926 107.697 100.762C106.947 99.9726 105.906 100.058 104.903 100.052L104.897 125.429C102.798 125.466 100.601 125.439 98.4938 125.44L98.4919 95.1056Z" fill="white"/>
<path d="M28.5282 94.5967C28.9253 94.5371 29.5143 94.5332 29.9128 94.5307C32.402 94.5303 34.7452 95.4969 36.1973 97.5696C37.7853 99.8363 37.734 102.205 37.7014 104.843L31.5171 104.84C31.5364 103.383 31.7098 101.094 30.5067 100.148C29.0783 99.0244 27.8954 100.996 27.8627 102.266C27.8027 104.591 29.4026 105.765 30.9564 107.099C33.978 109.73 37.2242 111.895 37.6553 116.208C38.2104 121.76 36.1529 125.311 30.3975 125.994C30.0578 126.01 29.7178 126.018 29.3778 126.019C24.9638 126.01 21.5855 123.591 21.0773 118.989C20.9652 117.973 21.0069 116.931 21.0108 115.908L27.3619 115.91C27.3473 117.306 27.0508 121.071 29.4587 121.073C30.4258 121.073 31.2075 119.579 31.1711 118.659C30.9979 114.278 25.9397 112.351 23.5341 109.294C22.3801 107.905 21.6381 106.421 21.3764 104.618C20.6109 99.3418 23.1289 95.3733 28.5282 94.5967Z" fill="white"/>
<path d="M45.0467 95.1029L53.6463 95.1045C54.3153 98.169 54.8956 102.118 55.4504 105.257L59.0199 125.465C56.8317 125.508 54.5087 125.471 52.3102 125.468C52.1564 123.37 51.7922 120.866 51.5431 118.731L50.0296 105.8C49.9117 104.722 49.6984 102.371 49.4163 101.415C49.0096 103.206 48.685 107.056 48.4293 108.987C47.7028 114.457 47.1461 120.007 46.4025 125.481C44.1713 125.495 41.9396 125.489 39.7081 125.462C41.4804 115.394 43.3865 105.176 45.0467 95.1029Z" fill="white"/>
<path d="M58.2159 95.1082C63.1517 94.9788 68.6838 95.1049 73.6686 95.105L73.6649 100.36L69.5377 100.363L69.534 121.227L69.5321 125.443L63.0347 125.441L63.0328 100.368L58.2188 100.353L58.2159 95.1082Z" fill="white"/>
</svg>
