<svg width="160" height="160" viewBox="0 0 160 160" fill="none" xmlns="http://www.w3.org/2000/svg">
<rect width="160" height="160" fill="#494B54"/>
<g clip-path="url(#clip0_4_447)">
<path d="M74.3615 87.6436C74.3615 88.6646 74.6607 89.4416 75.2591 89.9745C75.8575 90.5114 76.5732 90.7799 77.398 90.7799C78.2268 90.7799 78.9384 90.4992 79.5368 89.9419C80.1352 89.3846 80.4344 88.6158 80.4344 87.6436V70.307C80.4344 69.3307 80.1191 68.57 79.5005 68.0087C78.8778 67.4514 78.1743 67.1708 77.398 67.1708C76.5691 67.1708 75.8575 67.4514 75.2591 68.0087C74.6607 68.57 74.3615 69.3348 74.3615 70.307V87.6436ZM77.4222 61C78.5867 61 79.6864 61.2156 80.7134 61.6549C81.7121 62.082 82.6461 62.7247 83.5154 63.5749C84.3442 64.3884 84.979 65.2671 85.4116 66.223C85.8685 67.4107 86.0909 68.7816 86.0909 70.3273V87.6559C86.0909 90.2999 85.3106 92.4965 83.7418 94.2374C83.1272 94.9168 82.4237 95.4537 81.6272 95.8483C80.394 96.4584 78.9344 96.7228 77.2565 96.6333C76.0597 96.5398 75.0893 95.9622 74.3575 94.8923V104H68.697V69.831C68.697 67.4148 69.5743 65.3403 71.3251 63.6074C72.1418 62.7979 73.0272 62.1715 73.9693 61.7403C75.0489 61.2441 76.1971 61 77.4222 61Z" fill="white"/>
<path d="M65.6828 70.4983H59.9619V96.0172H65.6828V70.4983Z" fill="white"/>
<path d="M54.3635 63.8989C56.137 65.6074 57.0237 67.6358 57.0237 69.9881V96.0172H51.3028V70.397C51.3028 69.5225 50.9963 68.7654 50.3874 68.146C49.7786 67.5225 49.0512 67.2148 48.2053 67.2148C47.3594 67.2148 46.6402 67.5103 46.0232 68.1136C45.4184 68.7168 45.1078 69.4739 45.1078 70.397V96.0172H39.3992V70.1258C39.3992 67.7289 40.2818 65.6641 42.0553 63.9353C43.8247 62.1984 45.8802 61.3401 48.2094 61.3401C50.5427 61.3401 52.5982 62.1903 54.3635 63.8989Z" fill="white"/>
<path d="M141.841 71.2877C141.841 72.6603 140.709 73.7818 139.323 73.7818H131.453C130.068 73.7818 128.936 72.6603 128.936 71.2877V63.494C128.936 62.1215 130.068 61 131.453 61H139.323C140.709 61 141.841 62.1215 141.841 63.494V71.2877Z" fill="#EB6300"/>
<path d="M64.6816 61.2348C65.315 61.2348 65.834 61.749 65.834 62.3766V65.6236C65.834 66.2512 65.315 66.7653 64.6816 66.7653H61.1101C60.4767 66.7653 59.9578 66.2512 59.9578 65.6236V62.3725C59.9578 61.745 60.4767 61.2308 61.1101 61.2308H64.6816V61.2348Z" fill="#EB6300"/>
<path d="M124.183 76.0936C122.467 74.5267 120.379 73.6724 117.919 73.5348C116.991 73.4417 116.248 73.0935 115.688 72.4943C115.132 71.891 114.854 71.1703 114.854 70.3363C114.854 69.5063 115.124 68.7654 115.659 68.1136C116.19 67.4658 116.946 67.1419 117.923 67.1419C119.643 67.1419 120.669 67.9476 120.992 69.563H126.713C126.713 67.1662 125.818 65.1864 124.024 63.6155C122.23 62.0486 120.195 61.2672 117.915 61.2672C115.496 61.2672 113.432 62.1417 111.732 63.8948C110.032 65.6479 109.186 67.7937 109.186 70.3323C109.186 72.8708 110.024 75.0085 111.695 76.7373C113.375 78.4742 115.439 79.3568 117.903 79.4013C118.928 79.4013 119.709 79.6362 120.24 80.0937C120.775 80.5552 121.045 81.2718 121.045 82.2395V87.2801C121.045 88.1546 120.8 88.9198 120.314 89.5636C119.823 90.2073 119.018 90.5312 117.907 90.5312C116.464 90.5312 115.52 89.8834 115.063 88.5878C114.973 88.3044 114.936 88.0494 114.92 87.851V82.8427H109.186V87.5676C109.186 87.7052 109.19 88.2032 109.24 88.4947C109.244 88.519 109.248 88.5433 109.252 88.5636C109.566 90.6122 110.51 92.3936 112.08 93.9078C113.779 95.5476 115.721 96.3614 117.907 96.3614C120.555 96.3614 122.696 95.5476 124.326 93.9038C125.953 92.2681 126.77 90.2114 126.77 87.7174V82.1828C126.766 79.6929 125.904 77.6645 124.183 76.0936Z" fill="white"/>
<path d="M34.1605 76.0936C32.4483 74.5267 30.356 73.6724 27.896 73.5348C26.9684 73.4417 26.2247 73.0935 25.6649 72.4943C25.1091 71.891 24.8313 71.1703 24.8313 70.3363C24.8313 69.5063 25.101 68.7654 25.6363 68.1136C26.1675 67.4658 26.9194 67.1419 27.9001 67.1419C29.6205 67.1419 30.6462 67.9476 30.969 69.563H36.6899C36.6899 67.1662 35.795 65.1864 34.0011 63.6155C32.2072 62.0486 30.1722 61.2672 27.892 61.2672C25.4728 61.2672 23.4092 62.1417 21.7093 63.8948C20.0093 65.6479 19.1634 67.7937 19.1634 70.3323C19.1634 72.8708 20.0012 75.0085 21.6725 76.7373C23.352 78.4742 25.4156 79.3568 27.8797 79.4013C28.9054 79.4013 29.6859 79.6362 30.2171 80.0937C30.7524 80.5552 31.0221 81.2718 31.0221 82.2395V87.2801C31.0221 88.1546 30.7769 88.9198 30.2907 89.5636C29.8003 90.2073 28.9953 90.5312 27.8838 90.5312C26.4413 90.5312 25.4973 89.8834 25.0397 88.5878C24.9498 88.3044 24.913 88.0494 24.8966 87.851V82.8427H19.1594V87.5676C19.1594 87.7052 19.1634 88.2032 19.2125 88.4947C19.2166 88.519 19.2207 88.5433 19.2247 88.5636C19.5394 90.6122 20.4833 92.3936 22.0525 93.9078C23.7525 95.5476 25.6935 96.3614 27.8797 96.3614C30.5277 96.3614 32.6689 95.5476 34.2994 93.9038C35.9258 92.2681 36.743 90.2114 36.743 87.7174V82.1828C36.743 79.6929 35.8808 77.6645 34.1605 76.0936Z" fill="white"/>
<path d="M94.7737 70.2796C94.7737 69.3565 95.0802 68.5994 95.685 67.9962C96.2898 67.397 97.0376 67.0974 97.9202 67.0974C98.762 67.0974 99.4976 67.397 100.123 67.9962C100.752 68.5994 101.067 69.3565 101.067 70.2796V73.5348H94.7737V70.2796ZM106.735 78.8467V69.8586C106.735 67.5103 105.836 65.4819 104.042 63.7774C102.244 62.0689 100.184 61.2227 97.8507 61.2227C95.2845 61.2227 93.1882 62.0486 91.5536 63.7086C89.9232 65.3686 89.11 67.4658 89.11 70.0084V87.5757C89.11 90.1102 89.9354 92.2155 91.5945 93.8714C93.2495 95.5354 95.3458 96.3614 97.8589 96.3614C100.29 96.3614 102.334 95.5881 103.984 94.0455C105.643 92.503 106.538 90.5069 106.681 88.0656L106.694 82.9521H100.903V87.8834C100.903 87.8834 100.899 88.0453 100.883 88.1546C100.491 89.7093 99.4771 90.4907 97.8426 90.4907C97.0008 90.4907 96.2816 90.1871 95.6768 89.5879C95.0761 88.9887 94.7696 88.2235 94.7696 87.3044V78.8467H106.735Z" fill="white"/>
</g>
<defs>
<clipPath id="clip0_4_447">
<rect width="123" height="43" fill="white" transform="translate(19 61)"/>
</clipPath>
</defs>
</svg>
