<svg width="160" height="160" viewBox="0 0 160 160" fill="none" xmlns="http://www.w3.org/2000/svg">
<rect width="160" height="160" fill="#1ED760"/>
<g clip-path="url(#clip0_4_476)">
<path d="M109.131 74.4116C93.2567 64.9844 67.0725 64.1176 51.9187 68.7169C49.4851 69.4555 46.9116 68.0812 46.1745 65.6483C45.4369 63.2132 46.8092 60.6416 49.2446 59.9018C66.6402 54.6216 95.5578 55.6413 113.832 66.4893C116.021 67.7889 116.739 70.6157 115.442 72.8008C114.143 74.9895 111.314 75.711 109.131 74.4116ZM108.611 88.3746C107.497 90.1818 105.134 90.7487 103.33 89.6389C90.0953 81.5039 69.915 79.1473 54.2578 83.9C52.2274 84.5136 50.0828 83.3687 49.466 81.3422C48.8543 79.3118 49.9996 77.1711 52.0264 76.5537C69.9124 71.1261 92.1476 73.7551 107.348 83.096C109.153 84.2077 109.721 86.5716 108.611 88.3746ZM102.585 101.784C101.7 103.236 99.8106 103.69 98.3646 102.806C86.8002 95.7378 72.2444 94.1417 55.1024 98.057C53.4506 98.4358 51.8042 97.4007 51.4275 95.7488C51.0492 94.0976 52.0804 92.4511 53.7359 92.0741C72.4948 87.7857 88.5864 89.6314 101.567 97.5631C103.014 98.447 103.47 100.338 102.585 101.784ZM80.0002 30.7539C52.8026 30.7539 30.7539 52.8021 30.7539 79.9993C30.7539 107.2 52.8026 129.246 80.0002 129.246C107.198 129.246 129.246 107.2 129.246 79.9993C129.246 52.8021 107.198 30.7539 80.0002 30.7539Z" fill="#0E0E0E"/>
</g>
<defs>
<clipPath id="clip0_4_476">
<rect width="100" height="100" fill="white" transform="translate(30 30)"/>
</clipPath>
</defs>
</svg>
