<svg width="160" height="160" viewBox="0 0 160 160" fill="none" xmlns="http://www.w3.org/2000/svg">
<rect width="160" height="160" fill="#8FC5B8"/>
<g clip-path="url(#clip0_4_473)">
<path d="M125.269 71.4087V71.8174C126.123 72.0363 126.123 72.9265 126.123 73.739V84.0671L115.846 71.4087H112.48L113.777 72.9655V86.0665C113.777 86.879 113.777 87.7692 112.888 88.0271V88.4357H116.03V88.0271C115.141 87.7692 115.141 86.879 115.141 86.0665V74.4395L126.342 88.4357H127.522V73.7438C127.522 72.9265 127.522 72.0411 128.411 71.8174V71.4087H125.269ZM100.215 71.8174C101.065 72.0363 100.769 72.9265 100.551 73.739L96.8883 85.0692L92.274 71.4817V71.4087H90.574L86.3143 85.1033L82.6569 73.739C82.4334 72.9265 82.1031 72.0363 82.9483 71.8174V71.4087H78.5914V71.8174C79.5143 72.0752 79.7717 72.9265 80.034 73.739L84.7989 88.4357H86.7223L90.8217 74.9601L95.2951 88.4357H97.1797L101.988 73.7438C102.207 72.9265 102.503 72.0752 103.426 71.8174V71.4087H100.211V71.8174H100.215ZM30.9963 71.4087V71.8174C34.2117 72.8536 33.1383 76.293 32.4389 78.4822L30.2531 85.0692L25.7166 71.4087H23.9777L19.7666 85.1033L16.0654 73.593C15.808 72.8146 15.5846 72.0022 16.3569 71.8174V71.4087H12V71.8174C12.9617 72.0752 13.1463 72.7417 13.4426 73.739L18.2074 88.4357H20.1309L24.2691 74.9601L28.7037 88.4357H30.4766L35.9117 71.7784V71.4087H30.9914H30.9963ZM64.8117 73.4422H65.2197C65.4771 72.5909 66.366 72.5909 67.2111 72.5909H69.6154V86.1055C69.6154 86.9179 69.6154 87.8082 68.7266 88.0271V88.4357H73.0494V88.0271C72.1654 87.8082 72.1654 86.9179 72.1654 86.1055V72.5909H74.6037C75.4197 72.5909 76.3037 72.5909 76.566 73.4422H76.9691V71.3698H64.8117V73.4422ZM108.866 86.1055V73.5541C108.866 72.8146 108.939 72.0363 109.75 71.8174V71.4087H105.612V71.8174C106.423 72.0363 106.462 72.8146 106.462 73.5541V86.1055C106.462 86.9179 106.462 87.7692 105.612 88.0271V88.4357H109.75V88.0271C108.866 87.7692 108.866 86.9179 108.866 86.1055ZM142.04 79.8298V80.2384C146.854 81.5033 145.076 87.5844 140.146 87.5844C136.115 87.5844 133.487 83.9844 133.487 79.8638C133.487 74.4492 137.227 72.1141 140.151 72.1141C141.414 72.1141 144.483 72.406 146.004 75.7871H146.295V72.5228C144.415 71.5171 142.316 70.9939 140.185 71.0001C134.891 71.0001 130.631 74.4882 130.631 79.8638C130.631 85.2444 135.036 88.7665 140.151 88.7665C143.667 88.7665 148 86.3584 148 80.1995V79.8298H142.04ZM47.1803 87.2146H41.6431V80.2579H45.966C46.7431 80.2579 47.6271 80.2579 47.9234 81.1433H48.2926V78.2195H47.9234C47.6271 79.0709 46.7383 79.0709 45.9611 79.0709H41.6383V72.5909H46.85C47.7 72.5909 48.5889 72.5909 48.8414 73.4422H49.2543V71.4087H38.2043V71.8174C39.0883 72.0363 39.0883 72.9265 39.0883 73.739V86.0665C39.0883 86.879 39.0883 87.7692 38.2043 88.0271V88.4357H49.5846V86.3633H49.1766C48.9191 87.2146 48.0351 87.2146 47.1851 87.2146H47.1803ZM58.9006 78.5698L57.1229 77.9033C55.3063 77.2709 54.5631 76.3076 54.5631 74.8968C54.5631 73.1941 56.2291 72.1141 58.0846 72.1141C59.9351 72.1141 61.3049 73.0384 61.7857 74.7509L61.8246 74.8579H62.2326V72.0801C61.232 71.4865 60.008 71.0001 58.0069 71.0001C54.8254 71.0001 52.3046 72.5957 52.3046 75.6411C52.3046 77.7184 53.6014 79.2022 56.0446 80.0876L57.9 80.759C60.3043 81.6492 61.3049 82.8022 61.3049 84.466C61.3049 86.4703 59.6389 87.6184 57.4531 87.6184C55.4569 87.6184 53.5674 86.6941 52.7126 84.2422L52.6786 84.0963H52.2706V87.3557C53.6791 88.3238 55.4909 88.7665 57.6426 88.7665C61.2369 88.7665 63.5294 86.7282 63.5294 83.5028C63.5294 80.2774 60.858 79.2703 58.9006 78.5698Z" fill="black"/>
</g>
<defs>
<clipPath id="clip0_4_473">
<rect width="136" height="18" fill="white" transform="translate(12 71)"/>
</clipPath>
</defs>
</svg>
