<svg width="160" height="160" viewBox="0 0 160 160" fill="none" xmlns="http://www.w3.org/2000/svg">
<rect width="160" height="160" fill="#FF4C00"/>
<path d="M117.684 70.5069C111.507 62.7701 102.86 55.2643 91.5453 48.4918L91.5014 48.4698C80.095 41.8587 69.3977 37.9757 59.7456 36.3843C53.7116 35.3906 50.8354 36.5493 49.5233 37.3193C48.2149 38.0893 45.7919 40.0547 43.621 45.8775C40.149 55.2056 38.0914 66.5908 38 79.978V80.0257C38.0914 93.4092 40.1453 104.794 43.621 114.123C45.7919 119.945 48.2149 121.911 49.5233 122.681C50.8317 123.451 53.7153 124.609 59.7419 123.616C69.3977 122.024 80.095 118.141 91.5014 111.534L91.5453 111.508C102.86 104.736 111.504 97.2263 117.684 89.4931C121.543 84.6641 122 81.5437 122 79.9963C122 78.4563 121.543 75.3359 117.687 70.5069" fill="white"/>
</svg>
